<svg xmlns="http://www.w3.org/2000/svg" version="1.1" xmlns:xlink="http://www.w3.org/1999/xlink" xmlns:svgjs="http://svgjs.com/svgjs" width="2040" height="760" preserveAspectRatio="none" viewBox="0 0 2040 760"><g mask="url(&quot;#SvgjsMask1033&quot;)" fill="none"><rect width="2040" height="760" x="0" y="0" fill="rgba(118, 219, 212, 1)"></rect><path d="M2176 760L0 760 L0 496.4Q10.16 404.56, 102 414.72Q159.17 369.89, 204 427.07Q322.11 375.18, 374 493.29Q439.04 388.33, 544 453.37Q655.37 394.74, 714 506.1Q755.35 377.45, 884 418.79Q1002.36 367.15, 1054 485.52Q1157.84 419.36, 1224 523.2Q1302.31 431.51, 1394 509.82Q1430.03 443.85, 1496 479.88Q1552.95 434.84, 1598 491.79Q1629.96 421.75, 1700 453.71Q1738.8 390.5, 1802 429.3Q1860.08 385.38, 1904 443.45Q1972.53 409.98, 2006 478.5Q2063.5 366, 2176 423.5z" fill="rgba(204, 242, 244, 1)"></path><path d="M2142 760L0 760 L0 571.92Q39.35 509.27, 102 548.62Q168.83 445.45, 272 512.28Q402.99 473.27, 442 604.26Q484.34 544.6, 544 586.94Q589.15 462.09, 714 507.24Q814.41 437.65, 884 538.06Q963.77 515.83, 986 595.6Q1002.52 510.12, 1088 526.64Q1131.85 468.49, 1190 512.34Q1263.16 483.5, 1292 556.67Q1331.13 493.79, 1394 532.92Q1432.13 469.05, 1496 507.18Q1577.46 486.64, 1598 568.11Q1696.11 496.22, 1768 594.33Q1859.67 516, 1938 607.67Q1967.99 535.65, 2040 565.64Q2084.47 508.11, 2142 552.58z" fill="rgba(164, 235, 243, 1)"></path><path d="M2176 760L0 760 L0 596.98Q128.37 555.35, 170 683.72Q189.92 601.64, 272 621.56Q381.91 561.47, 442 671.39Q478.1 605.49, 544 641.59Q601.71 597.3, 646 655Q710.27 617.27, 748 681.54Q790.25 553.79, 918 596.05Q1011.55 519.6, 1088 613.14Q1179.9 535.04, 1258 626.94Q1329.5 528.45, 1428 599.95Q1505.37 575.32, 1530 652.68Q1586.39 607.07, 1632 663.45Q1678.7 540.15, 1802 586.85Q1872.11 554.96, 1904 625.07Q1977.22 596.3, 2006 669.52Q2078.79 572.31, 2176 645.1z" fill="rgba(204, 242, 244, 1)"></path><path d="M2176 760L0 760 L0 684.63Q93.01 607.64, 170 700.65Q262.19 690.84, 272 783.02Q297.82 706.84, 374 732.66Q448.44 637.1, 544 711.53Q588.86 654.39, 646 699.25Q743.52 694.77, 748 792.3Q813.36 687.65, 918 753.01Q991.18 656.19, 1088 729.37Q1165.29 704.66, 1190 781.96Q1257.12 679.08, 1360 746.19Q1403.97 688.16, 1462 732.13Q1536.13 636.26, 1632 710.4Q1698.73 607.13, 1802 673.86Q1884.88 654.75, 1904 737.63Q1947.53 679.16, 2006 722.69Q2069.78 616.48, 2176 680.26z" fill="white"></path></g><defs><mask id="SvgjsMask1033"><rect width="2040" height="760" fill="#ffffff"></rect></mask></defs></svg>